<svg xmlns="http://www.w3.org/2000/svg" viewBox="0 0 1440 320"><path fill="#0099ff" fill-opacity="1" d="M0,224L21.8,224C43.6,224,87,224,131,192C174.5,160,218,96,262,69.3C305.5,43,349,53,393,69.3C436.4,85,480,107,524,138.7C567.3,171,611,213,655,224C698.2,235,742,213,785,170.7C829.1,128,873,64,916,37.3C960,11,1004,21,1047,48C1090.9,75,1135,117,1178,149.3C1221.8,181,1265,203,1309,224C1352.7,245,1396,267,1418,277.3L1440,288L1440,0L1418.2,0C1396.4,0,1353,0,1309,0C1265.5,0,1222,0,1178,0C1134.5,0,1091,0,1047,0C1003.6,0,960,0,916,0C872.7,0,829,0,785,0C741.8,0,698,0,655,0C610.9,0,567,0,524,0C480,0,436,0,393,0C349.1,0,305,0,262,0C218.2,0,175,0,131,0C87.3,0,44,0,22,0L0,0Z"></path></svg>